<svg width="389" height="212" viewBox="0 0 389 212" fill="none" xmlns="http://www.w3.org/2000/svg">
<path d="M27.0647 5.14544C21.0699 -0.965447 11.2563 -1.05955 5.14544 4.93525C-0.965447 10.9301 -1.05955 20.7437 4.93525 26.8546L27.0647 5.14544ZM192.581 196L181.516 206.855C184.411 209.805 188.364 211.478 192.497 211.5C196.631 211.522 200.602 209.892 203.528 206.973L192.581 196ZM383.947 26.9729C390.008 20.9268 390.019 11.1128 383.973 5.0526C377.927 -1.00756 368.113 -1.01898 362.053 5.0271L383.947 26.9729ZM4.93525 26.8546L181.516 206.855L203.645 185.145L27.0647 5.14544L4.93525 26.8546ZM203.528 206.973L383.947 26.9729L362.053 5.0271L181.633 185.027L203.528 206.973Z" fill="white"/>
</svg>
